<svg version="1.1" id="IconsRepoEditor" xmlns="http://www.w3.org/2000/svg" xmlns:xlink="http://www.w3.org/1999/xlink" x="0px" y="0px" width="24px" height="24px" viewBox="0 0 959.999 959.999" style="enable-background:new 0 0 959.999 959.999;" xml:space="preserve" fill="#ffffff" stroke="#ffffff" stroke-width="0"><g id="IconsRepo_bgCarrier"></g> <path d="M628.833,459.92l67.596-67.596c48.836,19.389,103.95,18.183,152.007-3.614c11.799-5.353,14.622-20.844,5.46-30.006 L733.52,238.329c-14.625-14.625-14.625-38.338,0-52.963L853.771,65.114c9.221-9.222,6.385-24.827-5.497-30.203 C776.762,2.554,689.668,15.763,630.885,74.545c-55.213,55.212-70.079,135.975-44.618,204.958l-68.926,68.926L628.833,459.92z"></path> <path d="M499.665,366.106l-93.414-93.414L294.76,384.184l93.414,93.414l111.49,111.491l341.527,341.527 c4.877,4.877,11.271,7.316,17.662,7.316c6.393,0,12.785-2.439,17.662-7.316l76.166-76.166c9.755-9.756,9.755-25.57,0-35.324 L611.155,477.598L499.665,366.106z"></path> <path d="M904.345,127.995l-99.869,99.869c-7.984,7.984-7.984,20.93,0,28.914l76.972,76.972c8.594,8.593,22.826,7.907,30.371-1.619 c45.178-57.037,53.729-133.579,25.659-198.004C931.75,120.981,914.483,117.855,904.345,127.995z"></path> <path d="M139.613,601.295L259.988,721.67c14.625,14.625,14.625,38.338,0,52.963L139.737,894.885 c-9.221,9.221-6.385,24.828,5.497,30.203c71.512,32.355,158.606,19.148,217.39-39.635 c55.014-55.014,69.968-135.395,44.888-204.213l74.476-74.475l-111.489-111.49l-72.694,72.693 c-49.015-19.688-104.434-18.584-152.729,3.322C133.274,576.641,130.452,592.135,139.613,601.295z"></path> <path d="M81.69,629.866c-45.177,57.037-53.728,133.58-25.659,198.004c5.727,13.146,22.994,16.271,33.133,6.133l99.869-99.869 c7.984-7.984,7.984-20.93,0-28.914l-76.972-76.971C103.468,619.655,89.235,620.34,81.69,629.866z"></path> <path d="M138.849,461.443c11.956,11.956,31.339,11.956,43.295,0l5.772-5.772c11.956-11.955,11.956-31.339,0-43.294l-11.545-11.545 l22.731-22.73L92.309,271.308l-22.73,22.73l-11.545-11.545c-11.956-11.955-31.339-11.955-43.295,0l-5.772,5.773 c-11.956,11.956-11.956,31.339,0,43.294L138.849,461.443z"></path> <path d="M304.036,65.967l105.457,105.457c121.583-81.009,189.546-13.059,96.078-106.526 C440.93,0.256,359.305,30.842,304.036,65.967z"></path> <path d="M271.62,68.906c-5.978-5.978-13.812-8.967-21.647-8.967s-15.67,2.989-21.647,8.967L98.441,198.79 c-11.956,11.955-11.956,31.339,0,43.295l11.545,11.545l106.793,106.793l11.545,11.545c5.978,5.978,13.812,8.967,21.647,8.967 c1.894,0,3.788-0.179,5.655-0.528c4.374-0.817,8.603-2.592,12.352-5.324c1.272-0.929,2.491-1.965,3.64-3.113l5.462-5.462 l111.49-111.491l8.838-8.838l4.094-4.093c1.631-1.631,3.031-3.405,4.218-5.275c7.507-11.836,6.105-27.696-4.218-38.02 l-12.571-12.571L283.044,80.33L271.62,68.906z"></path> </svg>