<svg version="1.1" id="IconsRepoEditor" xmlns="http://www.w3.org/2000/svg" xmlns:xlink="http://www.w3.org/1999/xlink" x="0px" y="0px" width="40px" height="40px" viewBox="0 0 35.821 35.821" style="enable-background:new 0 0 35.821 35.821;" xml:space="preserve" fill="#6c6970" stroke="#6c6970" stroke-width="0"><g id="IconsRepo_bgCarrier"></g> <path d="M35.384,24.264l-10.264-7.86v-3.442c0.278-0.228,0.44-0.557,0.44-0.904c0-0.348-0.162-0.677-0.44-0.904v-6.99 c0-0.071-0.005-0.142-0.013-0.211c0.287-0.226,0.453-0.558,0.453-0.917c0-0.657-0.533-1.191-1.19-1.191 c-0.357,0-0.689,0.167-0.916,0.453c-0.07-0.008-0.142-0.012-0.212-0.012h-9.557c-0.455-0.557-1.353-0.557-1.809,0H2.319 c-0.071,0-0.142,0.004-0.211,0.012C1.882,2.012,1.55,1.845,1.191,1.845C0.534,1.845,0,2.378,0,3.036 c0,0.358,0.167,0.69,0.453,0.917c-0.008,0.069-0.012,0.14-0.012,0.211v6.99C0.163,11.381,0,11.71,0,12.058 c0,0.348,0.163,0.677,0.441,0.904v7.782c0,0.051,0.003,0.1,0.009,0.148C0.165,21.116,0,21.448,0,21.804 c0,0.656,0.534,1.189,1.191,1.189c0.332,0,0.64-0.144,0.865-0.396c0.09,0.014,0.177,0.021,0.263,0.021h9.613 c0.453,0.479,1.242,0.479,1.695,0h6.016l2.944,10.578c0.228,0.68,0.666,0.78,0.905,0.78c0.369,0,0.798-0.235,0.89-0.862 l2.315-7.511l7.867,0.343c0.812,0.168,1.135-0.373,1.193-0.525C35.85,25.202,35.918,24.764,35.384,24.264z M13.745,21.12 c-0.223-0.315-0.579-0.51-0.962-0.51c-0.383,0-0.739,0.191-0.962,0.51H2.322c-0.114,0-0.199-0.057-0.241-0.098 c-0.023-0.027-0.046-0.059-0.05-0.059c-0.058-0.072-0.087-0.148-0.087-0.225v-7.78H1.943c0.278-0.228,0.441-0.557,0.441-0.904 c0-0.348-0.163-0.677-0.441-0.904v-6.99c0-0.208,0.17-0.378,0.378-0.378h9.557c0.455,0.557,1.354,0.557,1.809,0h9.559 c0.207,0,0.377,0.17,0.377,0.378v6.99c-0.277,0.228-0.439,0.557-0.439,0.904c0,0.348,0.162,0.677,0.439,0.904v2.294l-5.353-4.099 c-0.478-0.451-1.144-0.447-1.459-0.009c-0.187,0.26-0.216,0.589-0.091,0.968l2.509,9.004h-5.483V21.12z M26.865,24.065 c-0.807-0.16-1.541,0.387-1.641,1.09l-1.759,5.477l-4.721-17.103l14.168,10.765L26.865,24.065z"></path> </svg>