<svg version="1.1" id="IconsRepoEditor" xmlns="http://www.w3.org/2000/svg" xmlns:xlink="http://www.w3.org/1999/xlink" x="0px" y="0px" viewBox="0 0 504 504" style="enable-background:new 0 0 504 504;" xml:space="preserve" width="40px" height="40px" fill="#6c6970" stroke="#6c6970" stroke-width="0"><g id="IconsRepo_bgCarrier"></g> <path d="M264.056,206.704c-13.08,0-23.72,10.64-23.72,23.716c0,13.08,10.64,23.716,23.72,23.716 c13.08,0,23.72-10.636,23.72-23.716C287.776,217.344,277.136,206.704,264.056,206.704z"></path> <path d="M486.48,68.908H92.3c-9.544,0-17.488,7.796-17.488,17.344v57.468H17.304C7.752,143.72,0,151.468,0,161.028v256.756 c0,9.56,7.752,17.308,17.304,17.308H411.88c9.56,0,17.308-7.752,17.308-17.308V360.28h57.292c9.54,0,17.52-7.736,17.52-17.272 V86.248C504,76.704,496.02,68.908,486.48,68.908z M397.688,323.552l-64.168-65.644c-0.388,0-0.82,0.048-1.292-0.14 c-0.944-0.388-2.012-0.024-2.956,0.364c-0.476,0.188-0.916,0.66-1.3,1.044l-60.32,60.416l-91.792-91.74 c-1.54-1.54-4.028-1.516-5.568,0.024L110.14,288.04l-28.712-28.704c-1.54-1.54-4.024-1.54-5.564,0.004L31.5,303.72v-128.5h366.188 V323.552z M472.5,328.78h-43.312V161.028c0-9.56-7.752-17.308-17.308-17.308H106.312v-43.312H472.5V328.78z"></path> </svg>