<svg version="1.1" id="IconsRepoEditor" xmlns="http://www.w3.org/2000/svg" xmlns:xlink="http://www.w3.org/1999/xlink" x="0px" y="0px" viewBox="0 0 305.276 305.276" style="enable-background:new 0 0 305.276 305.276;" xml:space="preserve" width="24px" height="24px" fill="#ffffff" stroke="#ffffff" stroke-width="0"><g id="IconsRepo_bgCarrier"></g> <path d="M299.73,145.181c-2.659-3.576-66.046-87.574-147.093-87.574c-81.048,0-144.434,83.998-147.093,87.574L0,152.639 l5.545,7.458c2.659,3.576,66.045,87.573,147.093,87.573c81.047,0,144.434-83.997,147.093-87.573l5.546-7.458L299.73,145.181z M152.638,202.692c-27.6,0-50.054-22.454-50.054-50.054c0-27.601,22.454-50.055,50.054-50.055 c27.601,0,50.055,22.454,50.055,50.055C202.692,180.238,180.238,202.692,152.638,202.692z"></path> <circle cx="152.638" cy="152.638" r="21.261"></circle> </svg>