<svg version="1.1" id="IconsRepoEditor" xmlns="http://www.w3.org/2000/svg" xmlns:xlink="http://www.w3.org/1999/xlink" x="0px" y="0px" viewBox="0 0 512 512" style="enable-background:new 0 0 512 512;" xml:space="preserve" width="40px" height="40px" fill="#6c6970" stroke="#6c6970" stroke-width="0"><g id="IconsRepo_bgCarrier"></g> <path d="M199.24,90.281c-10.345,0-18.732,8.387-18.732,18.732v113.304c0,10.345,8.387,18.732,18.732,18.732h113.303 c10.346,0,18.732-8.387,18.732-18.732V109.012c0-10.345-8.387-18.732-18.732-18.732H199.24z"></path> <path d="M493.268,90.281H379.965c-10.345,0-18.732,8.387-18.732,18.732v113.304c0,10.345,8.387,18.732,18.732,18.732h113.303 c10.345,0,18.732-8.387,18.732-18.732V109.012C512,98.667,503.613,90.281,493.268,90.281z"></path> <path d="M18.732,241.048h113.303c10.346,0,18.732-8.387,18.732-18.732V109.012c0-10.345-8.387-18.732-18.732-18.732H18.732 C8.387,90.281,0,98.667,0,109.012v113.304C0,232.661,8.387,241.048,18.732,241.048z"></path> <path d="M18.732,60.377h474.537c10.345,0,18.732-8.387,18.732-18.732s-8.387-18.732-18.732-18.732H18.732 C8.387,22.914,0,31.301,0,41.646S8.387,60.377,18.732,60.377z"></path> <path d="M312.545,338.32H199.24c-10.345,0-18.732,8.387-18.732,18.732v113.303c0,10.345,8.387,18.732,18.732,18.732h113.304 c10.346,0,18.732-8.387,18.732-18.73V357.051C331.276,346.706,322.89,338.32,312.545,338.32z"></path> <path d="M493.268,338.32H379.965c-10.345,0-18.732,8.387-18.732,18.732v113.303c0,10.345,8.387,18.732,18.732,18.732h113.303 c10.345,0,18.732-8.387,18.732-18.73V357.051C512,346.706,503.613,338.32,493.268,338.32z"></path> <path d="M132.035,338.32H18.732C8.387,338.32,0,346.706,0,357.051v113.303c0,10.345,8.387,18.732,18.732,18.732h113.303 c10.346,0,18.732-8.387,18.732-18.73V357.051C150.767,346.706,142.38,338.32,132.035,338.32z"></path> <path d="M493.268,270.952H18.732C8.387,270.952,0,279.339,0,289.683c0,10.345,8.387,18.732,18.732,18.732h474.537 c10.345,0,18.732-8.387,18.732-18.732C512,279.339,503.613,270.952,493.268,270.952z"></path> </svg>