<svg version="1.1" id="IconsRepoEditor" xmlns="http://www.w3.org/2000/svg" xmlns:xlink="http://www.w3.org/1999/xlink" x="0px" y="0px" viewBox="0 0 266.939 266.939" style="enable-background:new 0 0 266.939 266.939;" xml:space="preserve" width="40px" height="40px" fill="#6c6970" stroke="#6c6970" stroke-width="0"><g id="IconsRepo_bgCarrier"></g> <path d="M257.939,45.439H9c-4.971,0-9,4.029-9,9V119.5c0,4.971,4.029,9,9,9h248.939c4.971,0,9-4.029,9-9V54.439 C266.939,49.469,262.91,45.439,257.939,45.439z M248.939,110.5H18V63.439h230.939V110.5z"></path> <path d="M257.939,138.439H9c-4.971,0-9,4.029-9,9V212.5c0,4.971,4.029,9,9,9h248.939c4.971,0,9-4.029,9-9v-65.061 C266.939,142.469,262.91,138.439,257.939,138.439z M248.939,203.5H18v-47.061h230.939V203.5z"></path> </svg>